<mxfile host="Electron" agent="Mozilla/5.0 (Macintosh; Intel Mac OS X 10_15_7) AppleWebKit/537.36 (KHTML, like Gecko) draw.io/24.7.17 Chrome/128.0.6613.36 Electron/32.0.1 Safari/537.36" version="24.7.17">
  <diagram name="Page-1" id="1XQOiZTyknqjsaOq8g1g">
    <mxGraphModel dx="1122" dy="693" grid="0" gridSize="10" guides="1" tooltips="1" connect="1" arrows="1" fold="1" page="0" pageScale="1" pageWidth="827" pageHeight="1169" background="none" math="0" shadow="0">
      <root>
        <mxCell id="0" />
        <mxCell id="1" parent="0" />
        <mxCell id="fBFzF7196MMoRbjvp8Xs-1" value="Alimentation" style="rounded=0;whiteSpace=wrap;html=1;labelBackgroundColor=none;" parent="1" vertex="1">
          <mxGeometry x="262" y="48" width="120" height="60" as="geometry" />
        </mxCell>
        <mxCell id="fBFzF7196MMoRbjvp8Xs-2" value="" style="endArrow=classic;html=1;rounded=0;labelBackgroundColor=none;fontColor=default;" parent="1" edge="1">
          <mxGeometry width="50" height="50" relative="1" as="geometry">
            <mxPoint x="383" y="71" as="sourcePoint" />
            <mxPoint x="448" y="71" as="targetPoint" />
          </mxGeometry>
        </mxCell>
        <mxCell id="fBFzF7196MMoRbjvp8Xs-3" value="VCC3" style="text;html=1;align=center;verticalAlign=middle;resizable=0;points=[];autosize=1;strokeColor=none;fillColor=none;labelBackgroundColor=none;" parent="1" vertex="1">
          <mxGeometry x="378" y="44" width="50" height="26" as="geometry" />
        </mxCell>
        <mxCell id="fBFzF7196MMoRbjvp8Xs-4" value="" style="endArrow=classic;html=1;rounded=0;labelBackgroundColor=none;fontColor=default;" parent="1" edge="1">
          <mxGeometry width="50" height="50" relative="1" as="geometry">
            <mxPoint x="383" y="99" as="sourcePoint" />
            <mxPoint x="448" y="99" as="targetPoint" />
          </mxGeometry>
        </mxCell>
        <mxCell id="fBFzF7196MMoRbjvp8Xs-5" value="&lt;span style=&quot;caret-color: rgb(0, 0, 0); text-align: start; text-wrap: wrap;&quot;&gt;&lt;font face=&quot;Helvetica&quot;&gt;Alerte_Alim&lt;/font&gt;&lt;/span&gt;" style="text;html=1;align=center;verticalAlign=middle;resizable=0;points=[];autosize=1;strokeColor=none;fillColor=none;labelBackgroundColor=none;" parent="1" vertex="1">
          <mxGeometry x="378" y="74" width="79" height="26" as="geometry" />
        </mxCell>
        <mxCell id="fBFzF7196MMoRbjvp8Xs-29" value="" style="endArrow=classic;startArrow=classic;html=1;rounded=0;entryX=1.006;entryY=1.077;entryDx=0;entryDy=0;entryPerimeter=0;labelBackgroundColor=none;fontColor=default;" parent="1" edge="1">
          <mxGeometry width="50" height="50" relative="1" as="geometry">
            <mxPoint x="242" y="440" as="sourcePoint" />
            <mxPoint x="439.99" y="440.00200000000007" as="targetPoint" />
          </mxGeometry>
        </mxCell>
        <mxCell id="fBFzF7196MMoRbjvp8Xs-30" value="Données_de_programmation" style="text;html=1;align=center;verticalAlign=middle;resizable=0;points=[];autosize=1;strokeColor=none;fillColor=none;labelBackgroundColor=none;" parent="1" vertex="1">
          <mxGeometry x="254" y="414" width="173" height="26" as="geometry" />
        </mxCell>
        <mxCell id="fBFzF7196MMoRbjvp8Xs-31" value="Traitement Numérique" style="rounded=0;whiteSpace=wrap;html=1;labelBackgroundColor=none;" parent="1" vertex="1">
          <mxGeometry x="439" y="231" width="247" height="275" as="geometry" />
        </mxCell>
        <mxCell id="fBFzF7196MMoRbjvp8Xs-32" value="Captage Appui Bouton" style="rounded=0;whiteSpace=wrap;html=1;labelBackgroundColor=none;" parent="1" vertex="1">
          <mxGeometry x="177" y="256" width="120" height="60" as="geometry" />
        </mxCell>
        <mxCell id="fBFzF7196MMoRbjvp8Xs-33" value="" style="endArrow=classic;html=1;rounded=0;labelBackgroundColor=none;fontColor=default;" parent="1" edge="1">
          <mxGeometry width="50" height="50" relative="1" as="geometry">
            <mxPoint x="93" y="287" as="sourcePoint" />
            <mxPoint x="175" y="287" as="targetPoint" />
          </mxGeometry>
        </mxCell>
        <mxCell id="fBFzF7196MMoRbjvp8Xs-34" value="Appui_BP" style="text;html=1;align=center;verticalAlign=middle;resizable=0;points=[];autosize=1;strokeColor=none;fillColor=none;labelBackgroundColor=none;" parent="1" vertex="1">
          <mxGeometry x="97" y="260" width="71" height="26" as="geometry" />
        </mxCell>
        <mxCell id="fBFzF7196MMoRbjvp8Xs-35" value="" style="endArrow=classic;html=1;rounded=0;labelBackgroundColor=none;fontColor=default;" parent="1" edge="1">
          <mxGeometry width="50" height="50" relative="1" as="geometry">
            <mxPoint x="298" y="287" as="sourcePoint" />
            <mxPoint x="439" y="287" as="targetPoint" />
          </mxGeometry>
        </mxCell>
        <mxCell id="fBFzF7196MMoRbjvp8Xs-36" value="Vimage_BP" style="text;html=1;align=center;verticalAlign=middle;resizable=0;points=[];autosize=1;strokeColor=none;fillColor=none;labelBackgroundColor=none;" parent="1" vertex="1">
          <mxGeometry x="336" y="260" width="81" height="26" as="geometry" />
        </mxCell>
        <mxCell id="fBFzF7196MMoRbjvp8Xs-40" value="Affichage&lt;br&gt;minutage douche" style="rounded=0;whiteSpace=wrap;html=1;labelBackgroundColor=none;" parent="1" vertex="1">
          <mxGeometry x="834" y="256" width="120" height="60" as="geometry" />
        </mxCell>
        <mxCell id="fBFzF7196MMoRbjvp8Xs-41" value="" style="endArrow=classic;html=1;rounded=0;exitX=0.997;exitY=0.131;exitDx=0;exitDy=0;exitPerimeter=0;labelBackgroundColor=none;fontColor=default;" parent="1" source="fBFzF7196MMoRbjvp8Xs-31" edge="1">
          <mxGeometry width="50" height="50" relative="1" as="geometry">
            <mxPoint x="691.259" y="268" as="sourcePoint" />
            <mxPoint x="834" y="266.5" as="targetPoint" />
          </mxGeometry>
        </mxCell>
        <mxCell id="fBFzF7196MMoRbjvp8Xs-42" value="SCL" style="text;html=1;align=center;verticalAlign=middle;resizable=0;points=[];autosize=1;strokeColor=none;fillColor=none;labelBackgroundColor=none;" parent="1" vertex="1">
          <mxGeometry x="734" y="240" width="41" height="26" as="geometry" />
        </mxCell>
        <mxCell id="fBFzF7196MMoRbjvp8Xs-43" value="" style="endArrow=classic;html=1;rounded=0;exitX=1;exitY=0.5;exitDx=0;exitDy=0;labelBackgroundColor=none;fontColor=default;" parent="1" source="fBFzF7196MMoRbjvp8Xs-40" edge="1">
          <mxGeometry width="50" height="50" relative="1" as="geometry">
            <mxPoint x="964" y="287" as="sourcePoint" />
            <mxPoint x="1131" y="286" as="targetPoint" />
          </mxGeometry>
        </mxCell>
        <mxCell id="fBFzF7196MMoRbjvp8Xs-44" value="Durée_douche" style="text;html=1;align=left;verticalAlign=middle;resizable=0;points=[];autosize=1;strokeColor=none;fillColor=none;labelBackgroundColor=none;" parent="1" vertex="1">
          <mxGeometry x="964" y="260" width="97" height="26" as="geometry" />
        </mxCell>
        <mxCell id="fBFzF7196MMoRbjvp8Xs-47" value="&lt;span style=&quot;caret-color: rgb(0, 0, 0); text-align: start;&quot;&gt;&lt;font face=&quot;Helvetica&quot;&gt;Alertes durée&lt;br&gt;dépassée&lt;/font&gt;&lt;/span&gt;" style="rounded=0;whiteSpace=wrap;html=1;labelBackgroundColor=none;" parent="1" vertex="1">
          <mxGeometry x="834" y="343" width="120" height="149" as="geometry" />
        </mxCell>
        <mxCell id="fBFzF7196MMoRbjvp8Xs-48" value="" style="endArrow=classic;html=1;rounded=0;exitX=0.048;exitY=0.97;exitDx=0;exitDy=0;exitPerimeter=0;labelBackgroundColor=none;fontColor=default;entryX=0.008;entryY=0.192;entryDx=0;entryDy=0;entryPerimeter=0;" parent="1" source="fBFzF7196MMoRbjvp8Xs-49" target="fBFzF7196MMoRbjvp8Xs-47" edge="1">
          <mxGeometry width="50" height="50" relative="1" as="geometry">
            <mxPoint x="699" y="374" as="sourcePoint" />
            <mxPoint x="830" y="376" as="targetPoint" />
          </mxGeometry>
        </mxCell>
        <mxCell id="fBFzF7196MMoRbjvp8Xs-49" value="Commande_LED" style="text;html=1;align=center;verticalAlign=middle;resizable=0;points=[];autosize=1;strokeColor=none;fillColor=none;labelBackgroundColor=none;" parent="1" vertex="1">
          <mxGeometry x="680" y="347" width="110" height="26" as="geometry" />
        </mxCell>
        <mxCell id="fBFzF7196MMoRbjvp8Xs-50" value="" style="endArrow=classic;html=1;rounded=0;exitX=0.986;exitY=0.221;exitDx=0;exitDy=0;labelBackgroundColor=none;fontColor=default;exitPerimeter=0;" parent="1" edge="1">
          <mxGeometry width="50" height="50" relative="1" as="geometry">
            <mxPoint x="953.3199999999999" y="375.929" as="sourcePoint" />
            <mxPoint x="1131" y="376" as="targetPoint" />
          </mxGeometry>
        </mxCell>
        <mxCell id="fBFzF7196MMoRbjvp8Xs-51" value="Alerte_Visuelle" style="text;html=1;align=left;verticalAlign=middle;resizable=0;points=[];autosize=1;strokeColor=none;fillColor=none;labelBackgroundColor=none;" parent="1" vertex="1">
          <mxGeometry x="964" y="347" width="98" height="26" as="geometry" />
        </mxCell>
        <mxCell id="fBFzF7196MMoRbjvp8Xs-53" value="" style="endArrow=classic;html=1;rounded=0;entryX=0;entryY=0.5;entryDx=0;entryDy=0;exitX=0.041;exitY=0.991;exitDx=0;exitDy=0;exitPerimeter=0;labelBackgroundColor=none;fontColor=default;" parent="1" source="fBFzF7196MMoRbjvp8Xs-54" edge="1">
          <mxGeometry width="50" height="50" relative="1" as="geometry">
            <mxPoint x="693" y="457" as="sourcePoint" />
            <mxPoint x="834" y="456" as="targetPoint" />
          </mxGeometry>
        </mxCell>
        <mxCell id="fBFzF7196MMoRbjvp8Xs-54" value="Commande_BUZZER" style="text;html=1;align=center;verticalAlign=middle;resizable=0;points=[];autosize=1;strokeColor=none;fillColor=none;labelBackgroundColor=none;" parent="1" vertex="1">
          <mxGeometry x="680" y="430" width="135" height="26" as="geometry" />
        </mxCell>
        <mxCell id="fBFzF7196MMoRbjvp8Xs-55" value="" style="endArrow=classic;html=1;rounded=0;exitX=1;exitY=0.5;exitDx=0;exitDy=0;labelBackgroundColor=none;fontColor=default;" parent="1" edge="1">
          <mxGeometry width="50" height="50" relative="1" as="geometry">
            <mxPoint x="954" y="456" as="sourcePoint" />
            <mxPoint x="1131" y="456" as="targetPoint" />
          </mxGeometry>
        </mxCell>
        <mxCell id="fBFzF7196MMoRbjvp8Xs-56" value="Alerte_Sonore" style="text;html=1;align=left;verticalAlign=middle;resizable=0;points=[];autosize=1;strokeColor=none;fillColor=none;labelBackgroundColor=none;" parent="1" vertex="1">
          <mxGeometry x="964" y="430" width="95" height="26" as="geometry" />
        </mxCell>
        <mxCell id="fBFzF7196MMoRbjvp8Xs-59" value="&lt;div style=&quot;text-align: start;&quot;&gt;&lt;span style=&quot;text-wrap-mode: wrap;&quot;&gt;Données_Bluetooth&lt;/span&gt;&lt;/div&gt;" style="text;html=1;align=center;verticalAlign=middle;resizable=0;points=[];autosize=1;strokeColor=none;fillColor=none;labelBackgroundColor=none;" parent="1" vertex="1">
          <mxGeometry x="551" y="528" width="123" height="26" as="geometry" />
        </mxCell>
        <mxCell id="fBFzF7196MMoRbjvp8Xs-64" value="&lt;font style=&quot;font-size: 9px;&quot;&gt;FA1&lt;/font&gt;" style="text;html=1;align=center;verticalAlign=middle;resizable=0;points=[];autosize=1;strokeColor=none;fillColor=none;" parent="1" vertex="1">
          <mxGeometry x="355" y="87" width="34" height="26" as="geometry" />
        </mxCell>
        <mxCell id="fBFzF7196MMoRbjvp8Xs-66" value="&lt;font style=&quot;font-size: 9px;&quot;&gt;FP1&lt;/font&gt;" style="text;html=1;align=center;verticalAlign=middle;resizable=0;points=[];autosize=1;strokeColor=none;fillColor=none;" parent="1" vertex="1">
          <mxGeometry x="270" y="294" width="35" height="26" as="geometry" />
        </mxCell>
        <mxCell id="fBFzF7196MMoRbjvp8Xs-67" value="&lt;span style=&quot;font-size: 9px;&quot;&gt;FP2&lt;/span&gt;" style="text;html=1;align=center;verticalAlign=middle;resizable=0;points=[];autosize=1;strokeColor=none;fillColor=none;" parent="1" vertex="1">
          <mxGeometry x="658" y="483" width="35" height="26" as="geometry" />
        </mxCell>
        <mxCell id="fBFzF7196MMoRbjvp8Xs-69" value="&lt;span style=&quot;font-size: 9px;&quot;&gt;FP4&lt;/span&gt;" style="text;html=1;align=center;verticalAlign=middle;resizable=0;points=[];autosize=1;strokeColor=none;fillColor=none;" parent="1" vertex="1">
          <mxGeometry x="924" y="294" width="35" height="26" as="geometry" />
        </mxCell>
        <mxCell id="fBFzF7196MMoRbjvp8Xs-71" value="&lt;span style=&quot;font-size: 9px;&quot;&gt;FP5&lt;/span&gt;" style="text;html=1;align=center;verticalAlign=middle;resizable=0;points=[];autosize=1;strokeColor=none;fillColor=none;" parent="1" vertex="1">
          <mxGeometry x="924" y="470" width="35" height="26" as="geometry" />
        </mxCell>
        <mxCell id="tS0H43HDTyxBNdnkDGYa-1" value="" style="endArrow=classic;startArrow=classic;html=1;rounded=0;" edge="1" parent="1">
          <mxGeometry width="50" height="50" relative="1" as="geometry">
            <mxPoint x="551" y="588" as="sourcePoint" />
            <mxPoint x="551" y="505.5" as="targetPoint" />
          </mxGeometry>
        </mxCell>
        <mxCell id="tS0H43HDTyxBNdnkDGYa-3" value="SDA" style="text;html=1;align=center;verticalAlign=middle;resizable=0;points=[];autosize=1;strokeColor=none;fillColor=none;labelBackgroundColor=none;" vertex="1" parent="1">
          <mxGeometry x="733" y="276" width="43" height="26" as="geometry" />
        </mxCell>
        <mxCell id="tS0H43HDTyxBNdnkDGYa-4" value="Stockage&lt;br&gt;Énergie" style="rounded=0;whiteSpace=wrap;html=1;labelBackgroundColor=none;" vertex="1" parent="1">
          <mxGeometry x="82" y="48" width="115" height="60" as="geometry" />
        </mxCell>
        <mxCell id="tS0H43HDTyxBNdnkDGYa-5" value="" style="endArrow=classic;html=1;rounded=0;labelBackgroundColor=none;fontColor=default;" edge="1" parent="1">
          <mxGeometry width="50" height="50" relative="1" as="geometry">
            <mxPoint x="197" y="75" as="sourcePoint" />
            <mxPoint x="262" y="75" as="targetPoint" />
          </mxGeometry>
        </mxCell>
        <mxCell id="tS0H43HDTyxBNdnkDGYa-6" value="Énergie" style="text;html=1;align=center;verticalAlign=middle;resizable=0;points=[];autosize=1;strokeColor=none;fillColor=none;labelBackgroundColor=none;" vertex="1" parent="1">
          <mxGeometry x="196.5" y="48" width="59" height="26" as="geometry" />
        </mxCell>
        <mxCell id="tS0H43HDTyxBNdnkDGYa-7" value="&lt;font style=&quot;font-size: 9px;&quot;&gt;FA2&lt;/font&gt;" style="text;html=1;align=center;verticalAlign=middle;resizable=0;points=[];autosize=1;strokeColor=none;fillColor=none;" vertex="1" parent="1">
          <mxGeometry x="169" y="87" width="34" height="26" as="geometry" />
        </mxCell>
        <mxCell id="tS0H43HDTyxBNdnkDGYa-9" value="" style="endArrow=classic;startArrow=classic;html=1;rounded=0;" edge="1" parent="1">
          <mxGeometry width="50" height="50" relative="1" as="geometry">
            <mxPoint x="832" y="302" as="sourcePoint" />
            <mxPoint x="688" y="302" as="targetPoint" />
          </mxGeometry>
        </mxCell>
      </root>
    </mxGraphModel>
  </diagram>
</mxfile>
